# This file uses centimeters as units for non-parametric coordinates.

mtllib Lake.mtl
g default
v -0.285823 0.013290 1.042609
v -0.190549 0.013290 1.077640
v -0.095274 0.013290 1.096775
v -0.000000 0.013290 1.096775
v 0.095275 0.013290 1.096775
v 0.190549 0.013290 1.077640
v 0.285823 0.013290 1.042609
v -0.595736 0.013290 0.695072
v -0.414325 0.013290 0.695072
v -0.207163 0.013290 0.695072
v -0.000000 0.013290 0.695072
v 0.207163 0.013290 0.695072
v 0.414325 0.013290 0.695072
v 0.621488 0.013290 0.695072
v -0.621253 0.013290 0.347536
v -0.414168 0.013290 0.347536
v -0.207084 0.013290 0.347536
v -0.000000 0.013290 0.347536
v 0.207084 0.013290 0.347536
v 0.414168 0.013290 0.347536
v 0.621253 0.013290 0.347536
v -0.545179 0.013290 0.000000
v -0.363453 0.013290 0.000000
v -0.181726 0.013290 0.000000
v -0.000000 0.013290 0.000000
v 0.181726 0.013290 0.000000
v 0.363453 0.013290 0.000000
v 0.545179 0.013290 0.000000
v -0.382653 0.013290 -0.347536
v -0.255107 0.013290 -0.347536
v -0.127554 0.013290 -0.347536
v -0.000000 0.013290 -0.347536
v 0.127554 0.013290 -0.347536
v 0.255107 0.013290 -0.347536
v 0.382653 0.013290 -0.347536
v -0.183296 0.013290 -0.695073
v -0.094504 0.013290 -0.695073
v 0.038622 0.013290 -0.695073
v 0.171747 0.013290 -0.695073
v 0.304873 0.013290 -0.695073
v 0.437999 0.013290 -0.695073
v 0.571125 0.013290 -0.695073
v 0.072531 0.013290 -0.970628
v 0.174135 0.013290 -1.011428
v 0.247255 0.013290 -1.032383
v 0.320375 0.013290 -1.032383
v 0.393495 0.013290 -1.032383
v 0.466615 0.013290 -1.011428
v 0.511249 0.013290 -0.970628
vt 0.000000 0.000000
vt 0.166667 0.000000
vt 0.333333 0.000000
vt 0.500000 0.000000
vt 0.666667 0.000000
vt 0.833333 0.000000
vt 1.000000 0.000000
vt 0.000000 0.166667
vt 0.166667 0.166667
vt 0.333333 0.166667
vt 0.500000 0.166667
vt 0.666667 0.166667
vt 0.833333 0.166667
vt 1.000000 0.166667
vt 0.000000 0.333333
vt 0.166667 0.333333
vt 0.333333 0.333333
vt 0.500000 0.333333
vt 0.666667 0.333333
vt 0.833333 0.333333
vt 1.000000 0.333333
vt 0.000000 0.500000
vt 0.166667 0.500000
vt 0.333333 0.500000
vt 0.500000 0.500000
vt 0.666667 0.500000
vt 0.833333 0.500000
vt 1.000000 0.500000
vt 0.000000 0.666667
vt 0.166667 0.666667
vt 0.333333 0.666667
vt 0.500000 0.666667
vt 0.666667 0.666667
vt 0.833333 0.666667
vt 1.000000 0.666667
vt 0.000000 0.833333
vt 0.166667 0.833333
vt 0.333333 0.833333
vt 0.500000 0.833333
vt 0.666667 0.833333
vt 0.833333 0.833333
vt 1.000000 0.833333
vt 0.000000 1.000000
vt 0.166667 1.000000
vt 0.333333 1.000000
vt 0.500000 1.000000
vt 0.666667 1.000000
vt 0.833333 1.000000
vt 1.000000 1.000000
vn -0.000000 1.000000 0.000000
vn -0.000000 1.000000 0.000000
vn -0.000000 1.000000 0.000000
vn -0.000000 1.000000 0.000000
vn -0.000000 1.000000 0.000000
vn -0.000000 1.000000 0.000000
vn 0.000000 1.000000 0.000000
vn 0.000000 1.000000 0.000000
vn 0.000000 1.000000 0.000000
vn 0.000000 1.000000 0.000000
vn 0.000000 1.000000 0.000000
vn 0.000000 1.000000 0.000000
vn 0.000000 1.000000 0.000000
vn 0.000000 1.000000 0.000000
vn 0.000000 1.000000 0.000000
vn 0.000000 1.000000 0.000000
vn 0.000000 1.000000 0.000000
vn 0.000000 1.000000 0.000000
vn 0.000000 1.000000 0.000000
vn 0.000000 1.000000 0.000000
vn 0.000000 1.000000 0.000000
vn 0.000000 1.000000 0.000000
vn 0.000000 1.000000 0.000000
vn 0.000000 1.000000 0.000000
vn 0.000000 1.000000 0.000000
vn 0.000000 1.000000 0.000000
vn 0.000000 1.000000 0.000000
vn 0.000000 1.000000 0.000000
vn 0.000000 1.000000 0.000000
vn 0.000000 1.000000 0.000000
vn 0.000000 1.000000 0.000000
vn 0.000000 1.000000 0.000000
vn 0.000000 1.000000 0.000000
vn 0.000000 1.000000 0.000000
vn 0.000000 1.000000 0.000000
vn 0.000000 1.000000 0.000000
vn 0.000000 1.000000 0.000000
vn 0.000000 1.000000 0.000000
vn 0.000000 1.000000 0.000000
vn -0.000000 1.000000 0.000000
vn -0.000000 1.000000 0.000000
vn -0.000000 1.000000 0.000000
vn 0.000000 1.000000 0.000000
vn 0.000000 1.000000 0.000000
vn 0.000000 1.000000 0.000000
vn 0.000000 1.000000 0.000000
vn -0.000000 1.000000 0.000000
vn -0.000000 1.000000 0.000000
vn -0.000000 1.000000 0.000000
s 1
g pPlane1
usemtl initialShadingGroup
f 1/1/1 2/2/2 9/9/3 8/8/4
f 2/2/2 3/3/5 10/10/6 9/9/3
f 3/3/5 4/4/7 11/11/8 10/10/6
f 4/4/7 5/5/9 12/12/10 11/11/8
f 5/5/9 6/6/11 13/13/12 12/12/10
f 6/6/11 7/7/13 14/14/14 13/13/12
f 8/8/4 9/9/3 16/16/15 15/15/16
f 9/9/3 10/10/6 17/17/17 16/16/15
f 10/10/6 11/11/8 18/18/18 17/17/17
f 11/11/8 12/12/10 19/19/19 18/18/18
f 12/12/10 13/13/12 20/20/20 19/19/19
f 13/13/12 14/14/14 21/21/21 20/20/20
f 15/15/16 16/16/15 23/23/22 22/22/23
f 16/16/15 17/17/17 24/24/24 23/23/22
f 17/17/17 18/18/18 25/25/25 24/24/24
f 18/18/18 19/19/19 26/26/26 25/25/25
f 19/19/19 20/20/20 27/27/27 26/26/26
f 20/20/20 21/21/21 28/28/28 27/27/27
f 22/22/23 23/23/22 30/30/29 29/29/30
f 23/23/22 24/24/24 31/31/31 30/30/29
f 24/24/24 25/25/25 32/32/32 31/31/31
f 25/25/25 26/26/26 33/33/33 32/32/32
f 26/26/26 27/27/27 34/34/34 33/33/33
f 27/27/27 28/28/28 35/35/35 34/34/34
f 29/29/30 30/30/29 37/37/36 36/36/37
f 30/30/29 31/31/31 38/38/38 37/37/36
f 31/31/31 32/32/32 39/39/39 38/38/38
f 32/32/32 33/33/33 40/40/40 39/39/39
f 33/33/33 34/34/34 41/41/41 40/40/40
f 34/34/34 35/35/35 42/42/42 41/41/41
f 36/36/37 37/37/36 44/44/43 43/43/44
f 37/37/36 38/38/38 45/45/45 44/44/43
f 38/38/38 39/39/39 46/46/46 45/45/45
f 39/39/39 40/40/40 47/47/47 46/46/46
f 40/40/40 41/41/41 48/48/48 47/47/47
f 41/41/41 42/42/42 49/49/49 48/48/48
