# This file uses centimeters as units for non-parametric coordinates.

mtllib Pilar.mtl
g default
v 0.222714 0.000000 -0.072364
v 0.189452 0.000000 -0.137645
v 0.137645 0.000000 -0.189452
v 0.072364 0.000000 -0.222714
v 0.000000 0.000000 -0.234175
v -0.072364 0.000000 -0.222714
v -0.137645 0.000000 -0.189452
v -0.189452 0.000000 -0.137645
v -0.222714 0.000000 -0.072364
v -0.234175 0.000000 0.000000
v -0.222714 0.000000 0.072364
v -0.189452 0.000000 0.137645
v -0.137645 0.000000 0.189452
v -0.072364 0.000000 0.222714
v 0.000000 0.000000 0.234175
v 0.072364 0.000000 0.222714
v 0.137645 0.000000 0.189452
v 0.189452 0.000000 0.137645
v 0.222714 0.000000 0.072364
v 0.234175 0.000000 0.000000
v 0.148967 1.379747 -0.048402
v 0.126719 1.379747 -0.092067
v 0.092067 1.379747 -0.126719
v 0.048402 1.379747 -0.148967
v 0.000000 1.379747 -0.156633
v -0.048402 1.379747 -0.148967
v -0.092066 1.379747 -0.126719
v -0.126719 1.379747 -0.092066
v -0.148967 1.379747 -0.048402
v -0.156633 1.379747 0.000000
v -0.148967 1.379747 0.048402
v -0.126719 1.379747 0.092066
v -0.092066 1.379747 0.126719
v -0.048402 1.379747 0.148967
v -0.000000 1.379747 0.156633
v 0.048402 1.379747 0.148967
v 0.092066 1.379747 0.126719
v 0.126719 1.379747 0.092066
v 0.148967 1.379747 0.048402
v 0.156633 1.379747 0.000000
v 0.000000 0.000000 0.000000
v 0.000000 1.379747 0.000000
v 0.048402 1.333068 0.148967
v -0.000000 1.333068 0.156633
v -0.048402 1.333068 0.148967
v -0.092066 1.333068 0.126719
v -0.126719 1.333068 0.092066
v -0.148967 1.333068 0.048402
v -0.156633 1.333068 0.000000
v -0.148967 1.333068 -0.048402
v -0.126719 1.333068 -0.092066
v -0.092066 1.333068 -0.126719
v -0.048402 1.333068 -0.148967
v 0.000000 1.333068 -0.156633
v 0.048402 1.333068 -0.148967
v 0.092067 1.333068 -0.126719
v 0.126719 1.333068 -0.092067
v 0.148967 1.333068 -0.048402
v 0.156633 1.333068 0.000000
v 0.148967 1.333068 0.048402
v 0.126719 1.333068 0.092066
v 0.092066 1.333068 0.126719
v 0.048402 0.133993 0.148967
v -0.000000 0.133993 0.156633
v -0.048402 0.133993 0.148967
v -0.092066 0.133993 0.126719
v -0.126719 0.133993 0.092066
v -0.148967 0.133993 0.048402
v -0.156633 0.133993 0.000000
v -0.148967 0.133993 -0.048402
v -0.126719 0.133993 -0.092066
v -0.092066 0.133993 -0.126719
v -0.048402 0.133993 -0.148967
v 0.000000 0.133993 -0.156633
v 0.048402 0.133993 -0.148967
v 0.092067 0.133993 -0.126719
v 0.126719 0.133993 -0.092067
v 0.148967 0.133993 -0.048402
v 0.156633 0.133993 0.000000
v 0.148967 0.133993 0.048402
v 0.126719 0.133993 0.092066
v 0.092066 0.133993 0.126719
v 0.064473 0.993861 0.088740
v 0.033896 0.993861 0.104320
v -0.000000 0.993861 0.109688
v -0.033896 0.993861 0.104320
v -0.064473 0.993861 0.088740
v -0.088740 0.993861 0.064473
v -0.104320 0.993861 0.033896
v -0.109688 0.993861 -0.000000
v -0.104320 0.993861 -0.033896
v -0.088740 0.993861 -0.064473
v -0.064473 0.993861 -0.088740
v -0.033896 0.993861 -0.104320
v -0.000000 0.993861 -0.109688
v 0.033896 0.993861 -0.104320
v 0.064473 0.993861 -0.088740
v 0.088740 0.993861 -0.064473
v 0.104320 0.993861 -0.033896
v 0.109688 0.993861 -0.000000
v 0.104320 0.993861 0.033896
v 0.088740 0.993861 0.064473
v 0.078534 0.506000 0.108093
v 0.041288 0.506000 0.127070
v -0.000000 0.506000 0.133610
v -0.041288 0.506000 0.127070
v -0.078534 0.506000 0.108093
v -0.108093 0.506000 0.078534
v -0.127070 0.506000 0.041288
v -0.133610 0.506000 -0.000000
v -0.127070 0.506000 -0.041288
v -0.108093 0.506000 -0.078534
v -0.078534 0.506000 -0.108093
v -0.041288 0.506000 -0.127070
v -0.000000 0.506000 -0.133610
v 0.041288 0.506000 -0.127070
v 0.078534 0.506000 -0.108093
v 0.108093 0.506000 -0.078534
v 0.127070 0.506000 -0.041288
v 0.133610 0.506000 -0.000000
v 0.127070 0.506000 0.041288
v 0.108093 0.506000 0.078534
vt 0.648603 0.107966
vt 0.626409 0.064408
vt 0.591842 0.029841
vt 0.548284 0.007647
vt 0.500000 -0.000000
vt 0.451716 0.007647
vt 0.408159 0.029841
vt 0.373591 0.064409
vt 0.351397 0.107966
vt 0.343750 0.156250
vt 0.351397 0.204534
vt 0.373591 0.248091
vt 0.408159 0.282659
vt 0.451716 0.304853
vt 0.500000 0.312500
vt 0.548284 0.304853
vt 0.591841 0.282659
vt 0.626409 0.248091
vt 0.648603 0.204534
vt 0.656250 0.156250
vt 0.375000 0.312500
vt 0.387500 0.312500
vt 0.400000 0.312500
vt 0.412500 0.312500
vt 0.425000 0.312500
vt 0.437500 0.312500
vt 0.450000 0.312500
vt 0.462500 0.312500
vt 0.475000 0.312500
vt 0.487500 0.312500
vt 0.500000 0.312500
vt 0.512500 0.312500
vt 0.525000 0.312500
vt 0.537500 0.312500
vt 0.550000 0.312500
vt 0.562500 0.312500
vt 0.575000 0.312500
vt 0.587500 0.312500
vt 0.600000 0.312500
vt 0.612500 0.312500
vt 0.625000 0.312500
vt 0.375000 0.688440
vt 0.387500 0.688440
vt 0.400000 0.688440
vt 0.412500 0.688440
vt 0.425000 0.688440
vt 0.437500 0.688440
vt 0.450000 0.688440
vt 0.462500 0.688440
vt 0.475000 0.688440
vt 0.487500 0.688440
vt 0.500000 0.688440
vt 0.512500 0.688440
vt 0.525000 0.688440
vt 0.537500 0.688440
vt 0.550000 0.688440
vt 0.562500 0.688440
vt 0.575000 0.688440
vt 0.587500 0.688440
vt 0.600000 0.688440
vt 0.612500 0.688440
vt 0.625000 0.688440
vt 0.648603 0.795466
vt 0.626409 0.751908
vt 0.591842 0.717341
vt 0.548284 0.695147
vt 0.500000 0.687500
vt 0.451716 0.695147
vt 0.408159 0.717341
vt 0.373591 0.751909
vt 0.351397 0.795466
vt 0.343750 0.843750
vt 0.351397 0.892034
vt 0.373591 0.935591
vt 0.408159 0.970159
vt 0.451716 0.992353
vt 0.500000 1.000000
vt 0.548284 0.992353
vt 0.591841 0.970159
vt 0.626409 0.935591
vt 0.648603 0.892034
vt 0.656250 0.843750
vt 0.500000 0.150000
vt 0.500000 0.837500
vt 0.562500 0.675721
vt 0.550000 0.675721
vt 0.537500 0.675721
vt 0.525000 0.675721
vt 0.512500 0.675721
vt 0.500000 0.675721
vt 0.487500 0.675721
vt 0.475000 0.675721
vt 0.462500 0.675721
vt 0.450000 0.675721
vt 0.437500 0.675721
vt 0.425000 0.675721
vt 0.412500 0.675721
vt 0.400000 0.675721
vt 0.387500 0.675721
vt 0.625000 0.675721
vt 0.375000 0.675721
vt 0.612500 0.675721
vt 0.600000 0.675721
vt 0.587500 0.675721
vt 0.575000 0.675721
vt 0.562500 0.349009
vt 0.550000 0.349009
vt 0.537500 0.349009
vt 0.525000 0.349009
vt 0.512500 0.349009
vt 0.500000 0.349009
vt 0.487500 0.349009
vt 0.475000 0.349009
vt 0.462500 0.349009
vt 0.450000 0.349009
vt 0.437500 0.349009
vt 0.425000 0.349009
vt 0.412500 0.349009
vt 0.400000 0.349009
vt 0.387500 0.349009
vt 0.625000 0.349009
vt 0.375000 0.349009
vt 0.612500 0.349009
vt 0.600000 0.349009
vt 0.587500 0.349009
vt 0.575000 0.349009
vt 0.575000 0.583297
vt 0.562500 0.583297
vt 0.550000 0.583297
vt 0.537500 0.583297
vt 0.525000 0.583297
vt 0.512500 0.583297
vt 0.500000 0.583297
vt 0.487500 0.583297
vt 0.475000 0.583297
vt 0.462500 0.583297
vt 0.450000 0.583297
vt 0.437500 0.583297
vt 0.425000 0.583297
vt 0.412500 0.583297
vt 0.400000 0.583297
vt 0.387500 0.583297
vt 0.625000 0.583297
vt 0.375000 0.583297
vt 0.612500 0.583297
vt 0.600000 0.583297
vt 0.587500 0.583297
vt 0.575000 0.450370
vt 0.562500 0.450370
vt 0.550000 0.450370
vt 0.537500 0.450370
vt 0.525000 0.450370
vt 0.512500 0.450370
vt 0.500000 0.450370
vt 0.487500 0.450370
vt 0.475000 0.450370
vt 0.462500 0.450370
vt 0.450000 0.450370
vt 0.437500 0.450370
vt 0.425000 0.450370
vt 0.412500 0.450370
vt 0.400000 0.450370
vt 0.387500 0.450370
vt 0.625000 0.450370
vt 0.375000 0.450370
vt 0.612500 0.450370
vt 0.600000 0.450370
vt 0.587500 0.450370
vn 0.823156 0.500878 -0.267459
vn 0.700218 0.500878 -0.508739
vn 0.787215 0.230591 -0.571945
vn 0.925427 0.230591 -0.300688
vn 0.508738 0.500878 -0.700219
vn 0.571945 0.230591 -0.787215
vn 0.267459 0.500878 -0.823156
vn 0.300689 0.230591 -0.925427
vn 0.000000 0.500878 -0.865518
vn 0.000000 0.230591 -0.973051
vn -0.267460 0.500878 -0.823156
vn -0.300689 0.230591 -0.925426
vn -0.508739 0.500878 -0.700218
vn -0.571945 0.230591 -0.787215
vn -0.700219 0.500878 -0.508739
vn -0.787215 0.230591 -0.571945
vn -0.823156 0.500878 -0.267460
vn -0.925426 0.230591 -0.300689
vn -0.865518 0.500878 0.000000
vn -0.973051 0.230591 0.000000
vn -0.823156 0.500878 0.267460
vn -0.925426 0.230591 0.300689
vn -0.700218 0.500878 0.508739
vn -0.787215 0.230591 0.571945
vn -0.508739 0.500878 0.700219
vn -0.571945 0.230591 0.787215
vn -0.267459 0.500878 0.823156
vn -0.300689 0.230591 0.925426
vn 0.000000 0.500878 0.865518
vn 0.000000 0.230591 0.973051
vn 0.267460 0.500878 0.823156
vn 0.300689 0.230591 0.925426
vn 0.508739 0.500878 0.700219
vn 0.571945 0.230591 0.787215
vn 0.700218 0.500878 0.508739
vn 0.787215 0.230591 0.571945
vn 0.823156 0.500878 0.267460
vn 0.925426 0.230591 0.300689
vn 0.865518 0.500878 0.000001
vn 0.973051 0.230591 0.000001
vn 0.000000 -1.000000 0.000000
vn 0.000000 -1.000000 0.000000
vn 0.000000 -1.000000 0.000000
vn 0.000000 -1.000000 0.000000
vn 0.000000 -1.000000 0.000000
vn 0.000000 -1.000000 0.000000
vn 0.000000 -1.000000 0.000000
vn 0.000000 -1.000000 0.000000
vn 0.000000 -1.000000 0.000000
vn 0.000000 -1.000000 0.000000
vn 0.000000 -1.000000 0.000000
vn 0.000000 -1.000000 0.000000
vn 0.000000 -1.000000 0.000000
vn 0.000000 -1.000000 0.000000
vn 0.000000 -1.000000 0.000000
vn 0.000000 -1.000000 0.000000
vn 0.000000 -1.000000 0.000000
vn 0.000000 -1.000000 0.000000
vn 0.000000 -1.000000 0.000000
vn 0.000000 -1.000000 0.000000
vn 0.000000 -1.000000 0.000000
vn 0.000000 1.000000 0.000002
vn 0.000000 1.000000 0.000002
vn 0.000000 1.000000 0.000000
vn 0.000000 1.000000 0.000000
vn 0.000000 1.000000 0.000000
vn 0.000000 1.000000 0.000000
vn 0.000000 1.000000 0.000000
vn 0.000000 1.000000 0.000000
vn 0.000000 1.000000 0.000000
vn 0.000000 1.000000 0.000000
vn 0.000000 1.000000 0.000000
vn 0.000000 1.000000 0.000000
vn 0.000000 1.000000 0.000000
vn 0.000000 1.000000 0.000000
vn 0.000000 1.000000 0.000000
vn 0.000000 1.000000 -0.000000
vn 0.000000 1.000000 0.000001
vn 0.000000 1.000000 0.000001
vn 0.000000 1.000000 0.000000
vn 0.000000 1.000000 0.000000
vn 0.000000 1.000000 0.000000
vn 0.000000 -0.118054 0.993007
vn 0.306856 -0.118054 0.944406
vn 0.309017 0.000000 0.951057
vn 0.000000 0.000000 1.000000
vn -0.306856 -0.118054 0.944406
vn -0.309017 0.000000 0.951057
vn -0.583675 -0.118054 0.803360
vn -0.587785 0.000000 0.809017
vn -0.803360 -0.118054 0.583675
vn -0.809017 0.000000 0.587786
vn -0.944406 -0.118054 0.306856
vn -0.951057 0.000000 0.309017
vn -0.993007 -0.118054 -0.000000
vn -1.000000 0.000000 0.000000
vn -0.944406 -0.118054 -0.306856
vn -0.951057 0.000000 -0.309017
vn -0.803360 -0.118054 -0.583675
vn -0.809017 0.000000 -0.587785
vn -0.583675 -0.118054 -0.803360
vn -0.587786 0.000000 -0.809017
vn -0.306856 -0.118054 -0.944406
vn -0.309017 0.000000 -0.951056
vn 0.000000 -0.118054 -0.993007
vn 0.000000 0.000000 -1.000000
vn 0.306856 -0.118054 -0.944406
vn 0.309017 0.000000 -0.951057
vn 0.583675 -0.118054 -0.803360
vn 0.587786 0.000000 -0.809017
vn 0.803360 -0.118054 -0.583675
vn 0.809017 0.000000 -0.587785
vn 0.944406 -0.118054 -0.306855
vn 0.951057 0.000000 -0.309016
vn 0.993007 -0.118054 0.000001
vn 1.000000 0.000000 0.000001
vn 0.944406 -0.118054 0.306856
vn 0.951057 0.000000 0.309017
vn 0.803360 -0.118054 0.583675
vn 0.809017 0.000000 0.587786
vn 0.583675 -0.118054 0.803360
vn 0.587785 0.000000 0.809017
vn 0.308547 0.055109 0.949611
vn 0.000000 0.055109 0.998480
vn -0.308547 0.055109 0.949611
vn -0.586892 0.055109 0.807788
vn -0.807788 0.055109 0.586892
vn -0.949611 0.055109 0.308547
vn -0.998480 0.055109 0.000000
vn -0.949611 0.055109 -0.308547
vn -0.807788 0.055108 -0.586892
vn -0.586892 0.055109 -0.807787
vn -0.308547 0.055109 -0.949611
vn 0.000000 0.055109 -0.998480
vn 0.308547 0.055109 -0.949611
vn 0.586892 0.055109 -0.807788
vn 0.807788 0.055109 -0.586892
vn 0.949612 0.055109 -0.308546
vn 0.998480 0.055109 0.000001
vn 0.949611 0.055109 0.308547
vn 0.807788 0.055109 0.586892
vn 0.586892 0.055109 0.807788
vn 0.308855 -0.032351 0.950559
vn 0.587477 -0.032351 0.808594
vn 0.000000 -0.032351 0.999477
vn -0.308855 -0.032351 0.950559
vn -0.587478 -0.032351 0.808594
vn -0.808594 -0.032351 0.587478
vn -0.950559 -0.032351 0.308855
vn -0.999477 -0.032351 0.000000
vn -0.950559 -0.032351 -0.308855
vn -0.808594 -0.032351 -0.587477
vn -0.587478 -0.032351 -0.808593
vn -0.308855 -0.032351 -0.950559
vn 0.000000 -0.032351 -0.999477
vn 0.308855 -0.032351 -0.950559
vn 0.587477 -0.032351 -0.808594
vn 0.808594 -0.032351 -0.587477
vn 0.950559 -0.032351 -0.308854
vn 0.999477 -0.032351 0.000001
vn 0.950559 -0.032351 0.308855
vn 0.808594 -0.032351 0.587478
s 1
g pCylinder1
usemtl initialShadingGroup
f 1/21/1 2/22/2 77/120/3 78/122/4
f 2/22/2 3/23/5 76/119/6 77/120/3
f 3/23/5 4/24/7 75/118/8 76/119/6
f 4/24/7 5/25/9 74/117/10 75/118/8
f 5/25/9 6/26/11 73/116/12 74/117/10
f 6/26/11 7/27/13 72/115/14 73/116/12
f 7/27/13 8/28/15 71/114/16 72/115/14
f 8/28/15 9/29/17 70/113/18 71/114/16
f 9/29/17 10/30/19 69/112/20 70/113/18
f 10/30/19 11/31/21 68/111/22 69/112/20
f 11/31/21 12/32/23 67/110/24 68/111/22
f 12/32/23 13/33/25 66/109/26 67/110/24
f 13/33/25 14/34/27 65/108/28 66/109/26
f 14/34/27 15/35/29 64/107/30 65/108/28
f 15/35/29 16/36/31 63/106/32 64/107/30
f 16/36/31 17/37/33 82/126/34 63/106/32
f 17/37/33 18/38/35 81/125/36 82/126/34
f 18/38/35 19/39/37 80/124/38 81/125/36
f 19/39/37 20/40/39 79/123/40 80/124/38
f 20/40/39 1/41/1 78/121/4 79/123/40
s 2
f 2/2/41 1/1/42 41/83/43
f 3/3/44 2/2/41 41/83/43
f 4/4/45 3/3/44 41/83/43
f 5/5/46 4/4/45 41/83/43
f 6/6/47 5/5/46 41/83/43
f 7/7/48 6/6/47 41/83/43
f 8/8/49 7/7/48 41/83/43
f 9/9/50 8/8/49 41/83/43
f 10/10/51 9/9/50 41/83/43
f 11/11/52 10/10/51 41/83/43
f 12/12/53 11/11/52 41/83/43
f 13/13/54 12/12/53 41/83/43
f 14/14/55 13/13/54 41/83/43
f 15/15/56 14/14/55 41/83/43
f 16/16/57 15/15/56 41/83/43
f 17/17/58 16/16/57 41/83/43
f 18/18/59 17/17/58 41/83/43
f 19/19/60 18/18/59 41/83/43
f 20/20/61 19/19/60 41/83/43
f 1/1/42 20/20/61 41/83/43
s 3
f 21/81/62 22/80/63 42/84/64
f 22/80/63 23/79/65 42/84/64
f 23/79/65 24/78/66 42/84/64
f 24/78/66 25/77/67 42/84/64
f 25/77/67 26/76/68 42/84/64
f 26/76/68 27/75/69 42/84/64
f 27/75/69 28/74/70 42/84/64
f 28/74/70 29/73/71 42/84/64
f 29/73/71 30/72/72 42/84/64
f 30/72/72 31/71/73 42/84/64
f 31/71/73 32/70/74 42/84/64
f 32/70/74 33/69/75 42/84/64
f 33/69/75 34/68/76 42/84/64
f 34/68/76 35/67/77 42/84/64
f 35/67/77 36/66/78 42/84/64
f 36/66/78 37/65/79 42/84/64
f 37/65/79 38/64/80 42/84/64
f 38/64/80 39/63/81 42/84/64
f 39/63/81 40/82/82 42/84/64
f 40/82/82 21/81/62 42/84/64
s 1
f 44/86/83 43/85/84 36/57/85 35/56/86
f 45/87/87 44/86/83 35/56/86 34/55/88
f 46/88/89 45/87/87 34/55/88 33/54/90
f 47/89/91 46/88/89 33/54/90 32/53/92
f 48/90/93 47/89/91 32/53/92 31/52/94
f 49/91/95 48/90/93 31/52/94 30/51/96
f 50/92/97 49/91/95 30/51/96 29/50/98
f 51/93/99 50/92/97 29/50/98 28/49/100
f 52/94/101 51/93/99 28/49/100 27/48/102
f 53/95/103 52/94/101 27/48/102 26/47/104
f 54/96/105 53/95/103 26/47/104 25/46/106
f 55/97/107 54/96/105 25/46/106 24/45/108
f 56/98/109 55/97/107 24/45/108 23/44/110
f 57/99/111 56/98/109 23/44/110 22/43/112
f 58/101/113 57/99/111 22/43/112 21/42/114
f 59/102/115 58/100/113 21/62/114 40/61/116
f 60/103/117 59/102/115 40/61/116 39/60/118
f 61/104/119 60/103/117 39/60/118 38/59/120
f 62/105/121 61/104/119 38/59/120 37/58/122
f 43/85/84 62/105/121 37/58/122 36/57/85
f 64/107/30 63/106/32 104/149/123 105/150/124
f 65/108/28 64/107/30 105/150/124 106/151/125
f 66/109/26 65/108/28 106/151/125 107/152/126
f 67/110/24 66/109/26 107/152/126 108/153/127
f 68/111/22 67/110/24 108/153/127 109/154/128
f 69/112/20 68/111/22 109/154/128 110/155/129
f 70/113/18 69/112/20 110/155/129 111/156/130
f 71/114/16 70/113/18 111/156/130 112/157/131
f 72/115/14 71/114/16 112/157/131 113/158/132
f 73/116/12 72/115/14 113/158/132 114/159/133
f 74/117/10 73/116/12 114/159/133 115/160/134
f 75/118/8 74/117/10 115/160/134 116/161/135
f 76/119/6 75/118/8 116/161/135 117/162/136
f 77/120/3 76/119/6 117/162/136 118/163/137
f 78/122/4 77/120/3 118/163/137 119/165/138
f 79/123/40 78/121/4 119/164/138 120/166/139
f 80/124/38 79/123/40 120/166/139 121/167/140
f 81/125/36 80/124/38 121/167/140 122/168/141
f 82/126/34 81/125/36 122/168/141 103/148/142
f 63/106/32 82/126/34 103/148/142 104/149/123
f 84/128/143 83/127/144 62/105/121 43/85/84
f 85/129/145 84/128/143 43/85/84 44/86/83
f 86/130/146 85/129/145 44/86/83 45/87/87
f 87/131/147 86/130/146 45/87/87 46/88/89
f 88/132/148 87/131/147 46/88/89 47/89/91
f 89/133/149 88/132/148 47/89/91 48/90/93
f 90/134/150 89/133/149 48/90/93 49/91/95
f 91/135/151 90/134/150 49/91/95 50/92/97
f 92/136/152 91/135/151 50/92/97 51/93/99
f 93/137/153 92/136/152 51/93/99 52/94/101
f 94/138/154 93/137/153 52/94/101 53/95/103
f 95/139/155 94/138/154 53/95/103 54/96/105
f 96/140/156 95/139/155 54/96/105 55/97/107
f 97/141/157 96/140/156 55/97/107 56/98/109
f 98/142/158 97/141/157 56/98/109 57/99/111
f 99/144/159 98/142/158 57/99/111 58/101/113
f 100/145/160 99/143/159 58/100/113 59/102/115
f 101/146/161 100/145/160 59/102/115 60/103/117
f 102/147/162 101/146/161 60/103/117 61/104/119
f 83/127/144 102/147/162 61/104/119 62/105/121
f 104/149/123 103/148/142 83/127/144 84/128/143
f 105/150/124 104/149/123 84/128/143 85/129/145
f 106/151/125 105/150/124 85/129/145 86/130/146
f 107/152/126 106/151/125 86/130/146 87/131/147
f 108/153/127 107/152/126 87/131/147 88/132/148
f 109/154/128 108/153/127 88/132/148 89/133/149
f 110/155/129 109/154/128 89/133/149 90/134/150
f 111/156/130 110/155/129 90/134/150 91/135/151
f 112/157/131 111/156/130 91/135/151 92/136/152
f 113/158/132 112/157/131 92/136/152 93/137/153
f 114/159/133 113/158/132 93/137/153 94/138/154
f 115/160/134 114/159/133 94/138/154 95/139/155
f 116/161/135 115/160/134 95/139/155 96/140/156
f 117/162/136 116/161/135 96/140/156 97/141/157
f 118/163/137 117/162/136 97/141/157 98/142/158
f 119/165/138 118/163/137 98/142/158 99/144/159
f 120/166/139 119/164/138 99/143/159 100/145/160
f 121/167/140 120/166/139 100/145/160 101/146/161
f 122/168/141 121/167/140 101/146/161 102/147/162
f 103/148/142 122/168/141 102/147/162 83/127/144
