# This file uses centimeters as units for non-parametric coordinates.

mtllib Rock.mtl
g default
v -0.000185 -0.500000 0.500000
v -0.091336 -0.500000 0.462672
v -0.431271 -0.500000 0.462672
v -0.000185 -0.250000 0.500000
v -0.091336 -0.314953 0.462672
v -0.408787 -0.250000 0.462672
v -0.000185 0.000000 0.367278
v -0.091336 -0.064953 0.329950
v -0.373934 0.000000 0.329950
v -0.000185 0.105737 0.367278
v -0.091336 0.040784 0.329950
v -0.298994 0.063268 0.329950
v -0.000185 0.223015 0.234556
v -0.160249 0.158062 0.234556
v -0.295332 0.143073 0.234556
v -0.000185 0.260524 0.117278
v -0.160249 0.195570 0.117278
v -0.295332 0.180581 0.117278
v -0.000185 0.404786 0.000000
v -0.085303 0.322346 0.000000
v -0.220386 0.307356 0.000000
v -0.000185 0.404786 -0.250000
v -0.085303 0.322346 -0.250000
v -0.220386 0.307356 -0.250000
v -0.000185 0.127802 -0.375291
v -0.160249 0.062849 -0.375291
v -0.335303 0.085332 -0.375291
v -0.000185 -0.047181 -0.442671
v -0.160249 -0.112135 -0.411050
v -0.299886 -0.047181 -0.422536
v -0.000185 -0.152919 -0.442671
v -0.160249 -0.217872 -0.442671
v -0.377324 -0.152919 -0.454157
v -0.000185 -0.250000 -0.500000
v -0.160249 -0.314953 -0.500000
v -0.377202 -0.250000 -0.511486
v -0.000185 -0.500000 -0.500000
v -0.160249 -0.500000 -0.500000
v -0.399686 -0.500000 -0.511486
v -0.500185 -0.500000 -0.250000
v -0.500185 -0.500000 0.000000
v -0.500185 -0.500000 0.250000
v -0.477701 -0.250000 -0.250000
v -0.477701 -0.250000 0.000000
v -0.477701 -0.250000 0.250000
v -0.442848 0.000000 -0.250000
v -0.442848 0.000000 0.000000
v -0.442848 0.000000 0.117278
v -0.327937 0.170057 -0.250000
v -0.327937 0.170057 0.000000
v -0.367908 0.063268 0.117278
v 0.159880 -0.500000 0.500000
v 0.453873 -0.500000 0.468415
v 0.159880 -0.314953 0.500000
v 0.431389 -0.250000 0.468415
v 0.159880 -0.064953 0.367278
v 0.396536 0.000000 0.335693
v 0.159880 0.040784 0.367278
v 0.321596 0.063268 0.335693
v 0.159880 0.158062 0.234556
v 0.294963 0.143073 0.234556
v 0.159880 0.195570 0.117278
v 0.294963 0.180581 0.117278
v 0.084934 0.322346 0.000000
v 0.220016 0.307356 0.000000
v 0.084934 0.322346 -0.250000
v 0.220016 0.307356 -0.250000
v 0.099581 0.062849 -0.360934
v 0.274635 0.085332 -0.360934
v 0.099581 -0.112135 -0.396693
v 0.339716 -0.047181 -0.396693
v 0.099581 -0.217872 -0.428314
v 0.417154 -0.152919 -0.428314
v 0.099581 -0.314953 -0.485643
v 0.417032 -0.250000 -0.485643
v 0.099581 -0.500000 -0.485643
v 0.439516 -0.500000 -0.485643
v 0.499815 -0.500000 -0.250000
v 0.499815 -0.500000 0.000000
v 0.499815 -0.500000 0.250000
v 0.477332 -0.250000 -0.250000
v 0.477332 -0.250000 0.000000
v 0.477332 -0.250000 0.250000
v 0.442479 0.000000 -0.250000
v 0.442479 0.000000 0.000000
v 0.442479 0.000000 0.117278
v 0.327567 0.170057 -0.250000
v 0.327567 0.170057 0.000000
v 0.367539 0.063268 0.117278
vt 0.333163 0.638306
vt 0.443906 0.638306
vt 0.415134 0.678684
vt 0.333163 0.678684
vt 0.333163 0.567402
vt 0.415134 0.567402
vt 0.554649 0.638306
vt 0.525877 0.678684
vt 0.443906 0.819306
vt 0.333163 0.829266
vt 0.333163 0.437171
vt 0.443906 0.447131
vt 0.525877 0.567402
vt 0.601488 0.638306
vt 0.572715 0.678684
vt 0.554649 0.803867
vt 0.554649 0.462570
vt 0.572715 0.567402
vt 0.653439 0.638306
vt 0.624666 0.709211
vt 0.582675 0.770671
vt 0.582675 0.495766
vt 0.624666 0.567402
vt 0.618026 0.769048
vt 0.618026 0.507564
vt 0.704375 0.602530
vt 0.756326 0.602530
vt 0.756326 0.673434
vt 0.704375 0.673434
vt 0.704375 0.531625
vt 0.756326 0.531625
vt 0.808277 0.602530
vt 0.808277 0.640235
vt 0.756326 0.733272
vt 0.704375 0.733272
vt 0.704375 0.471788
vt 0.756326 0.471788
vt 0.808277 0.564824
vt 0.919020 0.602530
vt 0.919020 0.640235
vt 0.808277 0.700072
vt 0.659574 0.459990
vt 0.756326 0.439638
vt 0.808277 0.504987
vt 0.919020 0.564824
vt 0.919020 0.700072
vt 0.756326 0.765421
vt 0.808277 0.747715
vt 0.659574 0.426793
vt 0.756326 0.406442
vt 0.808277 0.457345
vt 0.919020 0.504987
vt 0.919020 0.747715
vt 0.756326 0.798617
vt 0.808277 0.798617
vt 0.808277 0.406442
vt 0.919020 0.457345
vt 0.919020 0.798617
vt 0.662118 0.768090
vt 0.662118 0.734894
vt 0.919020 0.406442
vt 0.998008 0.417660
vt 0.984001 0.451963
vt 0.771636 0.001655
vt 0.771636 0.124352
vt 0.700732 0.153124
vt 0.733931 0.038174
vt 0.809341 0.038174
vt 0.815830 0.153124
vt 0.771636 0.201865
vt 0.700732 0.230637
vt 0.623188 0.143165
vt 0.674093 0.044814
vt 0.869179 0.044814
vt 0.893374 0.143165
vt 0.815830 0.230637
vt 0.771636 0.248703
vt 0.700732 0.277476
vt 0.638877 0.201865
vt 0.916821 0.105634
vt 0.922203 0.201865
vt 0.815830 0.277476
vt 0.771636 0.291708
vt 0.700732 0.320480
vt 0.604574 0.248703
vt 0.956506 0.248703
vt 0.815830 0.320480
vt 0.771636 0.402451
vt 0.700732 0.402451
vt 0.604628 0.291708
vt 0.956452 0.291708
vt 0.815830 0.402451
vt 0.594668 0.402451
vt 0.966412 0.402451
vt 0.001992 0.317349
vt 0.112735 0.317349
vt 0.112735 0.433180
vt 0.001992 0.433180
vt 0.001992 0.206606
vt 0.112735 0.206606
vt 0.223478 0.317349
vt 0.155739 0.407785
vt 0.001992 0.095863
vt 0.112735 0.095863
vt 0.223478 0.206606
vt 0.298809 0.317349
vt 0.202578 0.393778
vt 0.001992 0.001655
vt 0.112735 0.001655
vt 0.223478 0.154655
vt 0.359629 0.317349
vt 0.261278 0.372850
vt 0.223478 0.060447
vt 0.275061 0.437171
vt 0.310413 0.479428
vt 0.327028 0.531379
vt 0.275061 0.531379
vt 0.366641 0.106039
vt 0.366641 0.001655
vt 0.477384 0.001655
vt 0.477384 0.106039
vt 0.520388 0.027050
vt 0.588127 0.106039
vt 0.366641 0.216782
vt 0.477384 0.216782
vt 0.588127 0.216782
vt 0.366641 0.327525
vt 0.477384 0.327525
vt 0.588127 0.268733
vt 0.366641 0.424276
vt 0.477384 0.424276
vt 0.588127 0.365484
vn -0.117645 0.000000 0.993056
vn -0.134064 0.329286 0.934665
vn -0.087753 0.224365 0.970546
vn -0.117645 0.000000 0.993056
vn -0.117645 0.000000 0.993056
vn -0.087753 0.224365 0.970546
vn -0.548032 0.277821 0.788972
vn -0.586219 0.052722 0.808435
vn -0.134064 0.329286 0.934665
vn -0.143286 0.295439 0.944556
vn -0.096607 0.392882 0.914500
vn -0.087753 0.224365 0.970546
vn -0.087753 0.224365 0.970546
vn -0.096607 0.392882 0.914500
vn -0.449864 0.540287 0.711134
vn -0.548032 0.277821 0.788972
vn -0.143286 0.295439 0.944556
vn -0.040264 0.555580 0.830487
vn -0.211633 0.351912 0.911795
vn -0.096607 0.392882 0.914500
vn -0.096607 0.392882 0.914500
vn -0.211633 0.351912 0.911795
vn -0.449864 0.540287 0.711134
vn -0.449864 0.540287 0.711134
vn -0.040264 0.555580 0.830487
vn -0.010067 0.850803 0.525389
vn -0.214556 0.819439 0.531494
vn -0.211633 0.351912 0.911795
vn -0.211633 0.351912 0.911795
vn -0.214556 0.819439 0.531494
vn -0.364682 0.799252 0.477707
vn -0.449864 0.540287 0.711134
vn -0.010067 0.850803 0.525389
vn -0.000000 0.842762 0.538287
vn -0.219570 0.827835 0.516215
vn -0.214556 0.819439 0.531494
vn -0.214556 0.819439 0.531494
vn -0.219570 0.827835 0.516215
vn -0.510455 0.766477 0.389807
vn -0.364682 0.799252 0.477707
vn -0.000000 0.842762 0.538287
vn -0.000000 0.960460 0.278418
vn -0.382753 0.867118 0.318757
vn -0.219570 0.827835 0.516215
vn -0.219570 0.827835 0.516215
vn -0.382753 0.867118 0.318757
vn -0.491263 0.845075 0.210971
vn -0.510455 0.766477 0.389807
vn -0.000000 0.960460 0.278418
vn 0.012087 0.882239 -0.470648
vn -0.302281 0.739556 -0.601401
vn -0.382753 0.867118 0.318757
vn -0.382753 0.867118 0.318757
vn -0.302281 0.739556 -0.601401
vn -0.492501 0.782733 -0.380490
vn -0.491263 0.845075 0.210971
vn 0.012087 0.882239 -0.470648
vn 0.034326 0.359954 -0.932339
vn -0.076402 0.368301 -0.926562
vn -0.302281 0.739556 -0.601401
vn -0.302281 0.739556 -0.601401
vn -0.076402 0.368301 -0.926562
vn -0.350602 0.424920 -0.834579
vn -0.492501 0.782733 -0.380490
vn 0.034326 0.359954 -0.932339
vn 0.053133 0.247643 -0.967393
vn -0.022166 0.235521 -0.971617
vn -0.076402 0.368301 -0.926562
vn -0.076402 0.368301 -0.926562
vn -0.022166 0.235521 -0.971617
vn -0.278118 0.409579 -0.868847
vn -0.350602 0.424920 -0.834579
vn 0.053133 0.247643 -0.967393
vn 0.055830 0.291610 -0.954906
vn 0.020912 0.394115 -0.918823
vn -0.022166 0.235521 -0.971617
vn -0.022166 0.235521 -0.971617
vn 0.020912 0.394115 -0.918823
vn -0.411660 0.384390 -0.826305
vn -0.278118 0.409579 -0.868847
vn 0.055830 0.291610 -0.954906
vn 0.053799 0.249350 -0.966918
vn 0.031077 0.132435 -0.990704
vn 0.020912 0.394115 -0.918823
vn 0.020912 0.394115 -0.918823
vn 0.031077 0.132435 -0.990704
vn -0.511023 0.192486 -0.837738
vn -0.411660 0.384390 -0.826305
vn 0.053799 0.249350 -0.966918
vn 0.055171 0.000000 -0.998477
vn 0.029442 -0.001522 -0.999565
vn 0.031077 0.132435 -0.990704
vn 0.031077 0.132435 -0.990704
vn 0.029442 -0.001522 -0.999565
vn -0.543739 0.050080 -0.837759
vn -0.511023 0.192486 -0.837738
vn -0.977803 0.087939 -0.190181
vn -0.978036 0.113549 -0.174794
vn -0.511023 0.192486 -0.837738
vn -0.543739 0.050080 -0.837759
vn -0.995980 0.089574 0.000000
vn -0.993685 0.112202 0.000000
vn -0.978036 0.113549 -0.174794
vn -0.977803 0.087939 -0.190181
vn -0.985401 0.088622 0.145367
vn -0.970858 0.161486 0.177082
vn -0.993685 0.112202 0.000000
vn -0.995980 0.089574 0.000000
vn -0.586219 0.052722 0.808435
vn -0.548032 0.277821 0.788972
vn -0.970858 0.161486 0.177082
vn -0.985401 0.088622 0.145367
vn -0.978036 0.113549 -0.174794
vn -0.901135 0.369446 -0.226860
vn -0.411660 0.384390 -0.826305
vn -0.511023 0.192486 -0.837738
vn -0.993685 0.112202 0.000000
vn -0.948383 0.316735 0.015769
vn -0.901135 0.369446 -0.226860
vn -0.978036 0.113549 -0.174794
vn -0.970858 0.161486 0.177082
vn -0.855456 0.489383 0.169407
vn -0.948383 0.316735 0.015769
vn -0.993685 0.112202 0.000000
vn -0.548032 0.277821 0.788972
vn -0.449864 0.540287 0.711134
vn -0.855456 0.489383 0.169407
vn -0.970858 0.161486 0.177082
vn -0.901135 0.369446 -0.226860
vn -0.829111 0.543876 -0.129517
vn -0.278118 0.409579 -0.868847
vn -0.411660 0.384390 -0.826305
vn -0.948383 0.316735 0.015769
vn -0.808137 0.587136 0.046750
vn -0.829111 0.543876 -0.129517
vn -0.901135 0.369446 -0.226860
vn -0.855456 0.489383 0.169407
vn -0.855456 0.489383 0.169407
vn -0.808137 0.587136 0.046750
vn -0.948383 0.316735 0.015769
vn -0.449864 0.540287 0.711134
vn -0.449864 0.540287 0.711134
vn -0.855456 0.489383 0.169407
vn -0.855456 0.489383 0.169407
vn -0.829111 0.543876 -0.129517
vn -0.492501 0.782733 -0.380490
vn -0.350602 0.424920 -0.834579
vn -0.278118 0.409579 -0.868847
vn -0.808137 0.587136 0.046750
vn -0.491263 0.845075 0.210971
vn -0.492501 0.782733 -0.380490
vn -0.829111 0.543876 -0.129517
vn -0.855456 0.489383 0.169407
vn -0.510455 0.766477 0.389807
vn -0.491263 0.845075 0.210971
vn -0.808137 0.587136 0.046750
vn -0.449864 0.540287 0.711134
vn -0.364682 0.799252 0.477707
vn -0.510455 0.766477 0.389807
vn -0.855456 0.489383 0.169407
vn -0.117645 0.000000 0.993056
vn 0.070880 0.003663 0.997478
vn 0.068396 0.222372 0.972560
vn -0.134064 0.329286 0.934665
vn 0.070880 0.003663 0.997478
vn 0.669949 0.057646 0.740165
vn 0.630714 0.273397 0.726260
vn 0.068396 0.222372 0.972560
vn -0.134064 0.329286 0.934665
vn 0.068396 0.222372 0.972560
vn 0.070364 0.401520 0.913143
vn -0.143286 0.295439 0.944556
vn 0.068396 0.222372 0.972560
vn 0.630714 0.273397 0.726260
vn 0.518549 0.566070 0.640837
vn 0.070364 0.401520 0.913143
vn -0.143286 0.295439 0.944556
vn 0.070364 0.401520 0.913143
vn 0.142006 0.436272 0.888539
vn -0.040264 0.555580 0.830487
vn 0.070364 0.401520 0.913143
vn 0.518549 0.566070 0.640837
vn 0.518549 0.566070 0.640837
vn 0.142006 0.436272 0.888539
vn -0.040264 0.555580 0.830487
vn 0.142006 0.436272 0.888539
vn 0.225357 0.849257 0.477470
vn -0.010067 0.850803 0.525389
vn 0.142006 0.436272 0.888539
vn 0.518549 0.566070 0.640837
vn 0.371250 0.830076 0.416111
vn 0.225357 0.849257 0.477470
vn -0.010067 0.850803 0.525389
vn 0.225357 0.849257 0.477470
vn 0.219570 0.827835 0.516215
vn -0.000000 0.842762 0.538287
vn 0.225357 0.849257 0.477470
vn 0.371250 0.830076 0.416111
vn 0.504483 0.776348 0.377864
vn 0.219570 0.827835 0.516215
vn -0.000000 0.842762 0.538287
vn 0.219570 0.827835 0.516215
vn 0.382753 0.867118 0.318757
vn -0.000000 0.960460 0.278418
vn 0.219570 0.827835 0.516215
vn 0.504483 0.776348 0.377864
vn 0.491264 0.845075 0.210971
vn 0.382753 0.867118 0.318757
vn -0.000000 0.960460 0.278418
vn 0.382753 0.867118 0.318757
vn 0.335867 0.734911 -0.589151
vn 0.012087 0.882239 -0.470648
vn 0.382753 0.867118 0.318757
vn 0.491264 0.845075 0.210971
vn 0.466245 0.778283 -0.420584
vn 0.335867 0.734911 -0.589151
vn 0.012087 0.882239 -0.470648
vn 0.335867 0.734911 -0.589151
vn 0.138447 0.328014 -0.934473
vn 0.034326 0.359954 -0.932339
vn 0.335867 0.734911 -0.589151
vn 0.466245 0.778283 -0.420584
vn 0.193826 0.392574 -0.899064
vn 0.138447 0.328014 -0.934473
vn 0.034326 0.359954 -0.932339
vn 0.138447 0.328014 -0.934473
vn 0.083141 0.235901 -0.968214
vn 0.053133 0.247643 -0.967393
vn 0.138447 0.328014 -0.934473
vn 0.193826 0.392574 -0.899064
vn 0.309189 0.406720 -0.859640
vn 0.083141 0.235901 -0.968214
vn 0.053133 0.247643 -0.967393
vn 0.083141 0.235901 -0.968214
vn 0.038015 0.405322 -0.913383
vn 0.055830 0.291610 -0.954906
vn 0.083141 0.235901 -0.968214
vn 0.309189 0.406720 -0.859640
vn 0.509452 0.388282 -0.767916
vn 0.038015 0.405322 -0.913383
vn 0.055830 0.291610 -0.954906
vn 0.038015 0.405322 -0.913383
vn 0.032069 0.138968 -0.989778
vn 0.053799 0.249350 -0.966918
vn 0.038015 0.405322 -0.913383
vn 0.509452 0.388282 -0.767916
vn 0.590277 0.189995 -0.784523
vn 0.032069 0.138968 -0.989778
vn 0.053799 0.249350 -0.966918
vn 0.032069 0.138968 -0.989778
vn 0.033359 0.000000 -0.999444
vn 0.055171 0.000000 -0.998477
vn 0.032069 0.138968 -0.989778
vn 0.590277 0.189995 -0.784523
vn 0.611142 0.054963 -0.789610
vn 0.033359 0.000000 -0.999444
vn 0.988559 0.088906 -0.121844
vn 0.611142 0.054963 -0.789610
vn 0.590277 0.189995 -0.784523
vn 0.987930 0.110817 -0.108234
vn 0.995980 0.089574 0.000000
vn 0.988559 0.088906 -0.121844
vn 0.987930 0.110817 -0.108234
vn 0.993685 0.112202 0.000000
vn 0.991321 0.089155 0.096617
vn 0.995980 0.089574 0.000000
vn 0.993685 0.112202 0.000000
vn 0.982251 0.145878 0.117913
vn 0.669949 0.057646 0.740165
vn 0.991321 0.089155 0.096617
vn 0.982251 0.145878 0.117913
vn 0.630714 0.273397 0.726260
vn 0.987930 0.110817 -0.108234
vn 0.590277 0.189995 -0.784523
vn 0.509452 0.388282 -0.767916
vn 0.911300 0.370296 -0.180040
vn 0.993685 0.112202 0.000000
vn 0.987930 0.110817 -0.108234
vn 0.911300 0.370296 -0.180040
vn 0.948383 0.316735 0.015769
vn 0.982251 0.145878 0.117913
vn 0.993685 0.112202 0.000000
vn 0.948383 0.316735 0.015769
vn 0.860643 0.492143 0.130725
vn 0.630714 0.273397 0.726260
vn 0.982251 0.145878 0.117913
vn 0.860643 0.492143 0.130725
vn 0.518549 0.566070 0.640837
vn 0.911300 0.370296 -0.180040
vn 0.509452 0.388282 -0.767916
vn 0.309189 0.406720 -0.859640
vn 0.782332 0.580733 -0.225180
vn 0.948383 0.316735 0.015769
vn 0.911300 0.370296 -0.180040
vn 0.782332 0.580733 -0.225180
vn 0.808137 0.587136 0.046751
vn 0.860643 0.492143 0.130725
vn 0.948383 0.316735 0.015769
vn 0.808137 0.587136 0.046751
vn 0.860643 0.492143 0.130725
vn 0.518549 0.566070 0.640837
vn 0.860643 0.492143 0.130725
vn 0.860643 0.492143 0.130725
vn 0.518549 0.566070 0.640837
vn 0.782332 0.580733 -0.225180
vn 0.309189 0.406720 -0.859640
vn 0.193826 0.392574 -0.899064
vn 0.466245 0.778283 -0.420584
vn 0.808137 0.587136 0.046751
vn 0.782332 0.580733 -0.225180
vn 0.466245 0.778283 -0.420584
vn 0.491264 0.845075 0.210971
vn 0.860643 0.492143 0.130725
vn 0.808137 0.587136 0.046751
vn 0.491264 0.845075 0.210971
vn 0.504483 0.776348 0.377864
vn 0.518549 0.566070 0.640837
vn 0.860643 0.492143 0.130725
vn 0.504483 0.776348 0.377864
vn 0.371250 0.830076 0.416111
s off
g pCube5
usemtl initialShadingGroup
f 1/1/1 4/2/2 5/3/3 2/4/4
f 2/4/5 5/3/6 6/9/7 3/10/8
f 4/2/9 7/7/10 8/8/11 5/3/12
f 5/3/13 8/8/14 9/16/15 6/9/16
f 7/7/17 10/14/18 11/15/19 8/8/20
f 8/8/21 11/15/22 12/21/23 9/16/24
f 10/14/25 13/19/26 14/20/27 11/15/28
f 11/15/29 14/20/30 15/24/31 12/21/32
f 13/26/33 16/27/34 17/28/35 14/29/36
f 14/29/37 17/28/38 18/34/39 15/35/40
f 16/27/41 19/32/42 20/33/43 17/28/44
f 17/28/45 20/33/46 21/41/47 18/34/48
f 19/32/49 22/39/50 23/40/51 20/33/52
f 20/33/53 23/40/54 24/46/55 21/41/56
f 22/64/57 25/65/58 26/66/59 23/67/60
f 23/67/61 26/66/62 27/72/63 24/73/64
f 25/65/65 28/70/66 29/71/67 26/66/68
f 26/66/69 29/71/70 30/79/71 27/72/72
f 28/70/73 31/77/74 32/78/75 29/71/76
f 29/71/77 32/78/78 33/85/79 30/79/80
f 31/77/81 34/83/82 35/84/83 32/78/84
f 32/78/85 35/84/86 36/90/87 33/85/88
f 34/83/89 37/88/90 38/89/91 35/84/92
f 35/84/93 38/89/94 39/93/95 36/90/96
f 40/95/97 43/96/98 36/97/99 39/98/100
f 41/99/101 44/100/102 43/96/103 40/95/104
f 42/103/105 45/104/106 44/100/107 41/99/108
f 3/108/109 6/109/110 45/104/111 42/103/112
f 43/96/113 46/101/114 33/102/115 36/97/116
f 44/100/117 47/105/118 46/101/119 43/96/120
f 45/104/121 48/110/122 47/105/123 44/100/124
f 6/109/125 9/113/126 48/110/127 45/104/128
f 46/101/129 49/106/130 30/107/131 33/102/132
f 47/55/133 50/48/134 49/53/135 46/58/136
f 48/54/137 51/47/138 50/48/139 47/55/140
f 9/59/141 12/60/142 51/47/143 48/54/144
f 49/106/145 24/111/146 27/112/147 30/107/148
f 50/48/149 21/41/150 24/46/151 49/53/152
f 51/47/153 18/34/154 21/41/155 50/48/156
f 12/114/157 15/115/158 18/116/159 51/117/160
f 1/1/161 52/5/162 54/6/163 4/2/164
f 52/5/165 53/11/166 55/12/167 54/6/168
f 4/2/169 54/6/170 56/13/171 7/7/172
f 54/6/173 55/12/174 57/17/175 56/13/176
f 7/7/177 56/13/178 58/18/179 10/14/180
f 56/13/181 57/17/182 59/22/183 58/18/184
f 10/14/185 58/18/186 60/23/187 13/19/188
f 58/18/189 59/22/190 61/25/191 60/23/192
f 13/26/193 60/30/194 62/31/195 16/27/196
f 60/30/197 61/36/198 63/37/199 62/31/200
f 16/27/201 62/31/202 64/38/203 19/32/204
f 62/31/205 63/37/206 65/44/207 64/38/208
f 19/32/209 64/38/210 66/45/211 22/39/212
f 64/38/213 65/44/214 67/52/215 66/45/216
f 22/64/217 66/68/218 68/69/219 25/65/220
f 66/68/221 67/74/222 69/75/223 68/69/224
f 25/65/225 68/69/226 70/76/227 28/70/228
f 68/69/229 69/75/230 71/81/231 70/76/232
f 28/70/233 70/76/234 72/82/235 31/77/236
f 70/76/237 71/81/238 73/86/239 72/82/240
f 31/77/241 72/82/242 74/87/243 34/83/244
f 72/82/245 73/86/246 75/91/247 74/87/248
f 34/83/249 74/87/250 76/92/251 37/88/252
f 74/87/253 75/91/254 77/94/255 76/92/256
f 78/118/257 77/119/258 75/120/259 81/121/260
f 79/124/261 78/118/262 81/121/263 82/125/264
f 80/127/265 79/124/266 82/125/267 83/128/268
f 53/130/269 80/127/270 83/128/271 55/131/272
f 81/121/273 75/120/274 73/122/275 84/123/276
f 82/125/277 81/121/278 84/123/279 85/126/280
f 83/128/281 82/125/282 85/126/283 86/129/284
f 55/131/285 83/128/286 86/129/287 57/132/288
f 84/61/289 73/62/290 71/63/291 87/57/292
f 85/56/293 84/61/294 87/57/295 88/51/296
f 86/50/297 85/56/298 88/51/299 89/43/300
f 57/49/301 86/50/302 89/43/303 59/42/304
f 87/80/305 71/81/306 69/75/307 67/74/308
f 88/51/309 87/57/310 67/52/311 65/44/312
f 89/43/313 88/51/314 65/44/315 63/37/316
f 59/42/317 89/43/318 63/37/319 61/36/320
