#
#
#

mtllib RuinStructure.mtl


#
# Group2 Mesh
#
g Group2 Mesh


#
# Group2 Mesh_defaultMat
#
usemtl Group2 Mesh_defaultMat

v -0.308658 0.001356 0.093425
v -0.154329 0.001356 0.129906
v -0.136813 0.427009 0.206569
v -0.273626 0.427009 0.170088
v 0.000000 0.001356 0.129906
v 0.000000 0.427009 0.206569
v 0.154329 0.001356 0.129906
v 0.136813 0.427009 0.206569
v 0.308658 0.001356 0.093425
v 0.273626 0.427009 0.170088
v -0.110327 0.916958 0.206569
v -0.308658 0.852662 0.170088
v 0.000000 0.852662 0.206569
v 0.110327 0.916958 0.206569
v 0.308658 0.852662 0.170088
v -0.154329 1.242017 0.206569
v -0.308658 1.278316 0.170088
v 0.308658 1.278316 0.170088
v 0.154329 1.242017 0.206569
v -0.154329 1.703969 0.129906
v -0.308658 1.703969 0.093425
v 0.000000 1.278316 0.206569
v 0.000000 1.703969 0.129906
v 0.154329 1.703969 0.129906
v 0.308658 1.703969 0.093425
v -0.128867 2.001356 -0.118267
v -0.064434 2.001356 -0.103036
v -0.064434 2.001356 -0.128919
v -0.128867 2.001356 -0.128919
v 0.000000 2.001356 -0.103036
v 0.000000 2.001356 -0.128919
v 0.064434 2.001356 -0.103036
v 0.064434 2.001356 -0.128919
v 0.128867 2.001356 -0.118267
v 0.128867 2.001356 -0.128919
v -0.064434 2.001356 -0.154802
v -0.128867 2.001356 -0.154802
v 0.000000 2.001356 -0.154802
v 0.064434 2.001356 -0.154802
v 0.128867 2.001356 -0.154802
v -0.064434 2.001356 -0.180686
v -0.128867 2.001356 -0.180686
v 0.000000 2.001356 -0.180686
v 0.064434 2.001356 -0.180686
v 0.128867 2.001356 -0.180686
v -0.064434 2.001356 -0.206569
v -0.128867 2.001356 -0.206569
v 0.000000 2.001356 -0.206569
v 0.064434 2.001356 -0.206569
v 0.128867 2.001356 -0.206569
v -0.308658 1.703969 -0.118075
v -0.154329 1.703969 -0.118075
v -0.154329 1.242017 -0.041411
v -0.308658 1.278316 -0.041411
v 0.000000 1.703969 -0.118075
v 0.000000 1.278316 -0.041411
v 0.154329 1.703969 -0.118075
v 0.154329 1.242017 -0.041411
v 0.308658 1.703969 -0.118075
v 0.308658 1.278316 -0.041411
v -0.110327 0.916958 -0.041411
v -0.308658 0.852662 -0.041411
v 0.308658 0.852662 -0.041411
v 0.110327 0.916958 -0.041411
v -0.136813 0.427009 -0.041411
v -0.273626 0.427009 -0.041411
v 0.000000 0.852662 -0.041411
v 0.000000 0.427009 -0.041411
v 0.136813 0.427009 -0.041411
v 0.273626 0.427009 -0.041411
v -0.154329 0.001356 -0.118075
v -0.308658 0.001356 -0.118075
v 0.000000 0.001356 -0.118075
v 0.154329 0.001356 -0.118075
v 0.308658 0.001356 -0.118075
v -0.154329 0.001356 -0.056079
v -0.308658 0.001356 -0.056079
v 0.000000 0.001356 -0.056079
v 0.154329 0.001356 -0.056079
v 0.308658 0.001356 -0.056079
v -0.154329 0.001356 0.005916
v -0.308658 0.001356 0.005916
v 0.000000 0.001356 0.005916
v 0.154329 0.001356 0.005916
v 0.308658 0.001356 0.005916
v -0.154329 0.001356 0.067911
v -0.308658 0.001356 0.067911
v 0.000000 0.001356 0.067911
v 0.154329 0.001356 0.067911
v 0.308658 0.001356 0.067911
v 0.273626 0.427009 0.020584
v 0.273626 0.427009 0.082579
v 0.273626 0.427009 0.144574
v 0.308658 0.852662 0.020584
v 0.308658 0.852662 0.082579
v 0.308658 0.852662 0.144574
v 0.308658 1.278316 0.020584
v 0.308658 1.278316 0.082579
v 0.308658 1.278316 0.144574
v 0.308658 1.703969 -0.056079
v 0.308658 1.703969 0.005916
v 0.308658 1.703969 0.067911
v -0.273626 0.427009 0.020584
v -0.273626 0.427009 0.082579
v -0.273626 0.427009 0.144574
v -0.308658 0.852662 0.020584
v -0.308658 0.852662 0.082579
v -0.308658 0.852662 0.144574
v -0.308658 1.278316 0.020584
v -0.308658 1.278316 0.082579
v -0.308658 1.278316 0.144574
v -0.308658 1.703969 -0.056079
v -0.308658 1.703969 0.005916
v -0.308658 1.703969 0.067911
vn -0.651429 -0.566619 0.504562
vn -0.078796 -0.766440 0.637464
vn -0.114256 -0.085094 0.989800
vn -0.783192 -0.051136 0.619674
vn 0.000000 -0.767221 0.641383
vn 0.000000 -0.088981 0.996033
vn 0.078796 -0.766440 0.637464
vn 0.114256 -0.085094 0.989800
vn 0.651429 -0.566619 0.504562
vn 0.783192 -0.051136 0.619674
vn 0.327588 0.298453 0.896444
vn -0.776077 -0.030850 0.629883
vn 0.000000 0.653774 0.756690
vn -0.327588 0.298453 0.896444
vn 0.114256 -0.085094 0.989800
vn 0.776077 -0.030850 0.629883
vn 0.256784 -0.167222 0.951892
vn -0.777494 0.049899 0.626908
vn 0.777494 0.049899 0.626908
vn -0.256784 -0.167222 0.951892
vn -0.105156 0.413442 0.904438
vn -0.719366 0.424825 0.549578
vn 0.256784 -0.167222 0.951892
vn 0.000000 -0.631903 0.775047
vn 0.000000 0.405740 0.913989
vn 0.105156 0.413442 0.904438
vn -0.256784 -0.167222 0.951892
vn 0.719366 0.424825 0.549578
vn -0.412121 0.860811 0.298597
vn -0.049068 0.903396 0.425990
vn 0.000000 1.000000 0.000000
vn -0.491239 0.871025 0.000000
vn 0.000000 0.899067 0.437810
vn 0.049068 0.903396 0.425990
vn 0.412121 0.860811 0.298597
vn 0.491239 0.871025 0.000000
vn -0.491239 0.871025 0.000000
vn 0.491239 0.871025 0.000000
vn 0.000000 0.597823 -0.801628
vn -0.480706 0.692135 -0.538396
vn 0.000000 0.597823 -0.801628
vn 0.480706 0.692135 -0.538396
vn -0.694245 0.022935 -0.719373
vn 0.000000 -0.228122 -0.973633
vn 0.356599 -0.344832 -0.868291
vn -0.711941 -0.059981 -0.699673
vn 0.000000 -0.757630 -0.652684
vn 0.000000 -0.228121 -0.973633
vn -0.356599 -0.344832 -0.868291
vn 0.694245 0.022935 -0.719373
vn 0.711941 -0.059981 -0.699673
vn 0.427345 0.285417 -0.857854
vn -0.706213 -0.029012 -0.707405
vn 0.706213 -0.029012 -0.707405
vn -0.427345 0.285417 -0.857854
vn 0.000000 0.088981 -0.996033
vn -0.707319 0.062900 -0.704091
vn 0.000000 0.653774 -0.756690
vn 0.000000 0.088981 -0.996033
vn 0.000000 0.088981 -0.996033
vn 0.707319 0.062900 -0.704091
vn 0.000000 -0.641383 -0.767221
vn -0.629002 -0.467490 -0.621135
vn 0.629002 -0.467490 -0.621135
vn 0.000000 -1.000000 0.000000
vn -0.735535 -0.677486 0.000000
vn 0.735535 -0.677486 0.000000
vn 0.735535 -0.677486 0.000000
vn 0.629002 -0.467490 -0.621135
vn 1.000000 0.000000 0.000000
vn 1.000000 0.000000 0.000000
vn 1.000000 0.000000 0.000000
vn 0.651429 -0.566619 0.504562
vn 0.735535 -0.677486 0.000000
vn 0.783192 -0.051136 0.619674
vn 0.999157 -0.041047 0.000000
vn 0.999157 -0.041047 0.000000
vn 1.000000 0.000000 0.000000
vn 0.999157 -0.041047 0.000000
vn 0.776077 -0.030850 0.629883
vn 0.999157 -0.041047 0.000000
vn 1.000000 0.000000 0.000000
vn 1.000000 -0.000000 0.000000
vn 0.776077 -0.030850 0.629883
vn 0.963266 0.268549 0.000000
vn 0.963266 0.268549 0.000000
vn -0.629002 -0.467490 -0.621135
vn -0.735535 -0.677486 0.000000
vn -1.000000 0.000000 0.000000
vn -1.000000 0.000000 0.000000
vn -1.000000 0.000000 0.000000
vn -0.735535 -0.677486 0.000000
vn -0.783192 -0.051136 0.619674
vn -0.999157 -0.041047 0.000000
vn -0.999157 -0.041047 0.000000
vn -1.000000 0.000000 0.000000
vn -0.999157 -0.041047 0.000000
vn -0.776077 -0.030850 0.629883
vn -0.999157 -0.041047 0.000000
vn -1.000000 0.000000 0.000000
vn -1.000000 0.000000 0.000000
vn -1.000000 -0.000000 0.000000
vn -0.776077 -0.030850 0.629883
vn -0.963266 0.268549 0.000000
vn -0.963266 0.268549 0.000000
vn -0.105156 0.413442 0.904438
vn 0.719366 0.424825 0.549578
vn 0.256784 -0.167222 0.951892
vn 0.256784 -0.167222 0.951892
vn -0.327588 0.298453 0.896444
vn 0.327588 0.298453 0.896444
vt 0.172540 0.655380
vt 0.210790 0.675580
vt 0.273340 0.525810
vt 0.223000 0.516870
vt 0.247450 0.702650
vt 0.316610 0.541500
vt 0.294130 0.709730
vt 0.358360 0.561800
vt 0.336130 0.724200
vt 0.400750 0.589230
vt 0.335480 0.344250
vt 0.249650 0.367920
vt 0.384710 0.379420
vt 0.446210 0.379150
vt 0.488320 0.457990
vt 0.268030 0.237370
vt 0.212180 0.223310
vt 0.616730 0.375180
vt 0.587840 0.316400
vt 0.698130 0.124420
vt 0.648290 0.184490
vt 0.795430 0.242310
vt 0.819420 0.202250
vt 0.627100 0.250530
vt 0.777610 0.285490
vt 0.763260 0.327180
vt 0.759010 0.370660
vt 0.932810 0.287650
vt 0.968510 0.301880
vt 0.968020 0.292490
vt 0.935890 0.285500
vt 0.995860 0.298270
vt 0.994030 0.289590
vt 0.958320 0.395390
vt 0.935830 0.381460
vt 0.931920 0.390080
vt 0.953660 0.403830
vt 0.901240 0.375680
vt 0.902460 0.379020
vt 0.969820 0.283400
vt 0.942720 0.279770
vt 0.994360 0.280900
vt 0.929240 0.399310
vt 0.949650 0.413250
vt 0.905080 0.387060
vt 0.972710 0.274080
vt 0.948980 0.273760
vt 0.996030 0.271550
vt 0.926700 0.408870
vt 0.945320 0.423560
vt 0.907190 0.394970
vt 0.975710 0.264380
vt 0.955000 0.267700
vt 0.998040 0.261130
vt 0.923220 0.418470
vt 0.939890 0.434510
vt 0.909070 0.402750
vt 0.878100 0.174190
vt 0.925300 0.157700
vt 0.824520 0.019120
vt 0.777470 0.064190
vt 0.976370 0.140360
vt 0.885160 0.001950
vt 0.850980 0.513310
vt 0.820070 0.468600
vt 0.671640 0.510530
vt 0.710170 0.559920
vt 0.791770 0.427650
vt 0.654680 0.452870
vt 0.137450 0.228200
vt 0.084250 0.248640
vt 0.092110 0.353850
vt 0.167380 0.370720
vt 0.541360 0.522660
vt 0.604460 0.566730
vt 0.094300 0.511200
vt 0.144240 0.515720
vt 0.050210 0.373370
vt 0.044160 0.506070
vt 0.620080 0.610510
vt 0.494860 0.678380
vt 0.532940 0.711170
vt 0.457570 0.644120
vt 0.054760 0.658760
vt 0.105280 0.669200
vt 0.001950 0.645480
vt 0.411920 0.809910
vt 0.456970 0.841830
vt 0.370770 0.779380
vt 0.134810 0.722590
vt 0.155120 0.713180
vt 0.126120 0.664510
vt 0.164880 0.768560
vt 0.186450 0.758080
vt 0.254180 0.806420
vt 0.311050 0.798140
vt 0.304740 0.776390
vt 0.248760 0.783420
vt 0.360570 0.761740
vt 0.175080 0.703260
vt 0.145950 0.660260
vt 0.208560 0.744280
vt 0.298700 0.754870
vt 0.244550 0.758270
vt 0.350710 0.745080
vt 0.194040 0.691340
vt 0.164910 0.656820
vt 0.229760 0.726130
vt 0.294530 0.732690
vt 0.243350 0.731040
vt 0.340660 0.729850
vt 0.441480 0.627310
vt 0.425020 0.610940
vt 0.407950 0.595340
vt 0.526070 0.504060
vt 0.510580 0.485120
vt 0.494860 0.465930
vt 0.642710 0.430790
vt 0.631340 0.408210
vt 0.620740 0.385010
vt 0.781790 0.410700
vt 0.772250 0.393900
vt 0.762940 0.377340
vt 0.167340 0.515550
vt 0.190440 0.515610
vt 0.213510 0.516280
vt 0.190910 0.370050
vt 0.214910 0.369260
vt 0.239420 0.368320
vt 0.159630 0.226080
vt 0.181640 0.224640
vt 0.203360 0.223690
vt 0.753140 0.079120
vt 0.860300 0.182160
vt 0.729600 0.096260
vt 0.843070 0.190470
vt 0.707100 0.115820
vt 0.826220 0.198740
vt 0.922350 0.309810
vt 0.914600 0.331540
vt 0.906660 0.352900
vt 0.559090 0.202630
vt 0.533480 0.246580
vt 0.582310 0.152610
vt 0.385980 0.265700
vt 0.314960 0.175260
vt 0.438290 0.290800
vt 0.409270 0.288460
f 1/1/1 2/2/2 3/3/3 4/4/4
f 2/2/2 5/5/5 6/6/6 3/3/3
f 5/5/5 7/7/7 8/8/8 6/6/6
f 7/7/7 9/9/9 10/10/10 8/8/8
f 4/4/4 3/3/3 11/11/11 12/12/12
f 3/3/3 6/6/6 13/13/13 11/11/11
f 6/6/6 8/8/8 14/14/14 13/13/13
f 8/8/15 10/10/10 15/15/16 14/14/14
f 12/12/12 11/11/11 16/16/17 17/17/18
f 14/14/14 15/15/16 18/18/19 19/19/20
f 17/20/18 16/21/17 20/22/21 21/23/22
f 16/21/23 22/24/24 23/25/25 20/22/21
f 22/24/24 19/19/20 24/26/26 23/25/25
f 19/19/27 18/18/19 25/27/28 24/26/26
f 26/28/29 27/29/30 28/30/31 29/31/32
f 27/29/30 30/32/33 31/33/31 28/30/31
f 30/34/33 32/35/34 33/36/31 31/37/31
f 32/35/34 34/38/35 35/39/36 33/36/31
f 29/31/32 28/30/31 36/40/31 37/41/32
f 28/30/31 31/33/31 38/42/31 36/40/31
f 31/37/31 33/36/31 39/43/31 38/44/31
f 33/36/31 35/39/36 40/45/36 39/43/31
f 37/41/32 36/40/31 41/46/31 42/47/37
f 36/40/31 38/42/31 43/48/31 41/46/31
f 38/44/31 39/43/31 44/49/31 43/50/31
f 39/43/31 40/45/36 45/51/38 44/49/31
f 42/47/37 41/46/31 46/52/39 47/53/40
f 41/46/31 43/48/31 48/54/39 46/52/39
f 43/50/31 44/49/31 49/55/41 48/56/39
f 44/49/31 45/51/38 50/57/42 49/55/41
f 51/58/43 52/59/44 53/60/45 54/61/46
f 52/59/44 55/62/44 56/63/47 53/60/45
f 55/64/44 57/65/48 58/66/49 56/67/47
f 57/65/48 59/68/50 60/69/51 58/66/49
f 54/70/46 53/71/45 61/72/52 62/73/53
f 58/66/49 60/69/51 63/74/54 64/75/55
f 62/73/53 61/72/52 65/76/56 66/77/57
f 61/72/52 67/78/58 68/79/59 65/76/56
f 67/80/58 64/75/55 69/81/60 68/82/59
f 64/75/55 63/74/54 70/83/61 69/81/60
f 66/77/57 65/76/56 71/84/62 72/85/63
f 65/76/60 68/79/59 73/86/62 71/84/62
f 68/82/59 69/81/60 74/87/62 73/88/62
f 69/81/56 70/83/61 75/89/64 74/87/62
f 72/85/63 71/90/62 76/91/65 77/92/66
f 71/90/62 73/93/62 78/94/65 76/91/65
f 73/95/62 74/96/62 79/97/65 78/98/65
f 74/96/62 75/89/64 80/99/67 79/97/65
f 77/92/66 76/91/65 81/100/65 82/101/66
f 76/91/65 78/94/65 83/102/65 81/100/65
f 78/98/65 79/97/65 84/103/65 83/104/65
f 79/97/65 80/99/67 85/105/67 84/103/65
f 82/101/66 81/100/65 86/106/65 87/107/66
f 81/100/65 83/102/65 88/108/65 86/106/65
f 83/104/65 84/103/65 89/109/65 88/110/65
f 84/103/65 85/105/67 90/111/67 89/109/65
f 87/107/66 86/106/65 2/2/2 1/1/1
f 86/106/65 88/108/65 5/5/5 2/2/2
f 88/110/65 89/109/65 7/7/7 5/5/5
f 89/109/65 90/111/67 9/9/9 7/7/7
f 80/99/68 75/89/69 70/83/61 91/112/70
f 85/105/67 80/99/67 91/112/70 92/113/71
f 90/111/67 85/105/68 92/113/71 93/114/72
f 9/9/73 90/111/74 93/114/72 10/10/75
f 91/112/70 70/83/61 63/74/54 94/115/76
f 92/113/71 91/112/70 94/115/76 95/116/77
f 93/114/78 92/113/71 95/116/77 96/117/79
f 10/10/10 93/114/78 96/117/79 15/15/80
f 94/115/81 63/74/54 60/69/51 97/118/82
f 95/116/77 94/115/81 97/118/82 98/119/83
f 96/117/79 95/116/77 98/119/83 99/120/83
f 15/15/84 96/117/79 99/120/83 18/18/19
f 97/118/82 60/69/51 59/68/50 100/121/85
f 98/119/83 97/118/82 100/121/85 101/122/86
f 99/120/83 98/119/83 101/122/86 102/123/86
f 18/18/19 99/120/83 102/123/86 25/27/28
f 72/85/87 77/92/88 103/124/89 66/77/57
f 77/92/66 82/101/66 104/125/90 103/124/89
f 82/101/88 87/107/66 105/126/91 104/125/90
f 87/107/92 1/1/1 4/4/93 105/126/91
f 66/77/57 103/124/89 106/127/94 62/73/53
f 103/124/89 104/125/90 107/128/95 106/127/94
f 104/125/90 105/126/96 108/129/97 107/128/95
f 105/126/96 4/4/4 12/12/98 108/129/97
f 62/73/53 106/127/99 109/130/100 54/70/46
f 106/127/99 107/128/95 110/131/101 109/130/100
f 107/128/95 108/129/97 111/132/102 110/131/101
f 108/129/97 12/12/103 17/17/18 111/132/102
f 54/61/46 109/133/100 112/134/104 51/58/43
f 109/133/100 110/135/101 113/136/105 112/134/104
f 110/135/101 111/137/102 114/138/105 113/136/105
f 111/137/102 17/20/18 21/23/22 114/138/105
f 21/23/22 20/22/106 27/139/30 26/28/29
f 114/138/105 21/23/22 26/28/29 29/31/32
f 20/22/21 23/25/25 30/140/33 27/139/30
f 23/25/25 24/26/26 32/141/34 30/140/33
f 24/26/26 25/27/28 34/38/35 32/141/34
f 25/27/107 102/123/86 35/39/36 34/38/35
f 113/136/105 114/138/105 29/31/32 37/41/32
f 102/123/86 101/122/86 40/45/36 35/39/36
f 112/134/104 113/136/105 37/41/32 42/47/37
f 101/122/86 100/121/85 45/51/38 40/45/36
f 52/59/44 51/58/43 47/53/40 46/52/39
f 51/58/43 112/134/104 42/47/37 47/53/40
f 55/62/44 52/59/44 46/52/39 48/54/39
f 57/65/48 55/64/44 48/56/39 49/55/41
f 100/121/85 59/68/50 50/57/42 45/51/38
f 59/68/50 57/65/48 49/55/41 50/57/42
f 56/142/47 58/143/49 19/19/20 22/24/24
f 22/24/24 16/21/108 53/144/45 56/142/47
f 61/145/52 53/146/45 16/16/109 11/11/11
f 58/143/49 64/147/55 14/14/14 19/19/20
f 64/147/55 67/148/58 13/13/13 14/14/110
f 67/148/58 61/145/52 11/11/111 13/13/13
