#
#
#

mtllib Shot.mtl


#
# pSphere10 Mesh
#
g pSphere10 Mesh


#
# pSphere10 Mesh_initialShadingGroup
#
usemtl pSphere10 Mesh_initialShadingGroup

v -0.000711 0.674520 -0.449367
v -0.275646 0.562797 0.002685
v -1.000711 1.009594 0.002685
v -0.000711 1.009594 -0.997315
v -0.000711 0.674520 0.454737
v -0.000711 1.009594 1.002685
v 0.274224 0.562797 0.002685
v 0.999289 1.009594 0.002685
v -0.275646 1.456391 0.002685
v -0.000711 1.344668 -0.449367
v -0.000711 1.344668 0.454737
v 0.274224 1.456391 0.002685
v -0.000711 0.009594 0.002685
v -0.000711 2.009593 0.002685
vn -0.462951 -0.754889 -0.464563
vn -0.462951 -0.754889 0.464563
vn 0.462951 -0.754889 0.464563
vn 0.462951 -0.754889 -0.464563
vn -0.462951 0.754889 -0.464563
vn -0.462951 0.754889 0.464563
vn 0.462951 0.754889 0.464563
vn 0.462951 0.754889 -0.464563
vn -0.749240 -0.372362 -0.547710
vn -0.749239 -0.372362 -0.547710
vn -0.749240 -0.372362 0.547710
vn 0.749239 -0.372363 0.547710
vn 0.749239 -0.372363 -0.547710
vn -0.749240 0.372362 -0.547710
vn -0.749239 0.372362 -0.547710
vn -0.749240 0.372362 0.547710
vn 0.749239 0.372362 0.547710
vn 0.749239 0.372363 -0.547710
vn 0.749240 0.372363 -0.547710
vt 0.000000 0.250000
vt 0.250000 0.250000
vt 0.250000 0.500000
vt 0.000000 0.500000
vt 0.500000 0.250000
vt 0.500000 0.500000
vt 0.750000 0.250000
vt 0.750000 0.500000
vt 1.000000 0.250000
vt 1.000000 0.500000
vt 0.250000 0.750000
vt 0.000000 0.750000
vt 0.500000 0.750000
vt 0.750000 0.750000
vt 1.000000 0.750000
vt 0.125000 0.000000
vt 0.375000 0.000000
vt 0.625000 0.000000
vt 0.875000 0.000000
vt 0.125000 1.000000
vt 0.375000 1.000000
vt 0.625000 1.000000
vt 0.875000 1.000000
f 1/1/1 2/2/1 3/3/1 4/4/1
f 2/2/2 5/5/2 6/6/2 3/3/2
f 5/5/3 7/7/3 8/8/3 6/6/3
f 7/7/4 1/9/4 4/10/4 8/8/4
f 4/4/5 3/3/5 9/11/5 10/12/5
f 3/3/6 6/6/6 11/13/6 9/11/6
f 6/6/7 8/8/7 12/14/7 11/13/7
f 8/8/8 4/10/8 10/15/8 12/14/8
f 2/2/9 1/1/10 13/16/10
f 5/5/11 2/2/11 13/17/11
f 7/7/12 5/5/12 13/18/12
f 1/9/13 7/7/13 13/19/13
f 10/12/14 9/11/15 14/20/14
f 9/11/16 11/13/16 14/21/16
f 11/13/17 12/14/17 14/22/17
f 12/14/18 10/15/19 14/23/18
