# This file uses centimeters as units for non-parametric coordinates.

mtllib Shot.mtl
g default
v -0.000711 -0.335074 -0.449367
v -0.275646 -0.446797 0.002685
v -0.000711 -0.335074 0.454737
v 0.274224 -0.446797 0.002685
v -0.000711 0.000000 -0.997315
v -1.000711 0.000000 0.002685
v -0.000711 0.000000 1.002685
v 0.999289 0.000000 0.002685
v -0.000711 0.335074 -0.449367
v -0.275646 0.446797 0.002685
v -0.000711 0.335074 0.454737
v 0.274224 0.446797 0.002685
v -0.000711 -1.000000 0.002685
v -0.000711 1.000000 0.002685
vt 0.000000 0.250000
vt 0.250000 0.250000
vt 0.500000 0.250000
vt 0.750000 0.250000
vt 1.000000 0.250000
vt 0.000000 0.500000
vt 0.250000 0.500000
vt 0.500000 0.500000
vt 0.750000 0.500000
vt 1.000000 0.500000
vt 0.000000 0.750000
vt 0.250000 0.750000
vt 0.500000 0.750000
vt 0.750000 0.750000
vt 1.000000 0.750000
vt 0.125000 0.000000
vt 0.375000 0.000000
vt 0.625000 0.000000
vt 0.875000 0.000000
vt 0.125000 1.000000
vt 0.375000 1.000000
vt 0.625000 1.000000
vt 0.875000 1.000000
vn -0.462951 -0.754889 -0.464563
vn -0.462951 -0.754889 -0.464563
vn -0.462951 -0.754889 -0.464563
vn -0.462951 -0.754889 -0.464563
vn -0.462951 -0.754889 0.464563
vn -0.462951 -0.754889 0.464563
vn -0.462951 -0.754889 0.464563
vn -0.462951 -0.754889 0.464563
vn 0.462951 -0.754889 0.464563
vn 0.462951 -0.754889 0.464563
vn 0.462951 -0.754889 0.464563
vn 0.462951 -0.754889 0.464563
vn 0.462951 -0.754889 -0.464563
vn 0.462951 -0.754889 -0.464563
vn 0.462951 -0.754889 -0.464563
vn 0.462951 -0.754889 -0.464563
vn -0.462951 0.754889 -0.464563
vn -0.462951 0.754889 -0.464563
vn -0.462951 0.754889 -0.464563
vn -0.462951 0.754889 -0.464563
vn -0.462951 0.754889 0.464563
vn -0.462951 0.754889 0.464563
vn -0.462951 0.754889 0.464563
vn -0.462951 0.754889 0.464563
vn 0.462951 0.754889 0.464563
vn 0.462951 0.754889 0.464563
vn 0.462951 0.754889 0.464563
vn 0.462951 0.754889 0.464563
vn 0.462951 0.754889 -0.464563
vn 0.462951 0.754889 -0.464563
vn 0.462951 0.754889 -0.464563
vn 0.462951 0.754889 -0.464563
vn -0.749240 -0.372362 -0.547710
vn -0.749239 -0.372362 -0.547710
vn -0.749239 -0.372362 -0.547710
vn -0.749240 -0.372362 0.547710
vn -0.749240 -0.372362 0.547710
vn -0.749240 -0.372362 0.547710
vn 0.749239 -0.372363 0.547710
vn 0.749239 -0.372363 0.547710
vn 0.749239 -0.372363 0.547710
vn 0.749239 -0.372363 -0.547710
vn 0.749239 -0.372363 -0.547710
vn 0.749239 -0.372363 -0.547710
vn -0.749240 0.372362 -0.547710
vn -0.749239 0.372362 -0.547710
vn -0.749240 0.372362 -0.547710
vn -0.749240 0.372362 0.547710
vn -0.749240 0.372362 0.547710
vn -0.749240 0.372362 0.547710
vn 0.749239 0.372362 0.547710
vn 0.749239 0.372362 0.547710
vn 0.749239 0.372362 0.547710
vn 0.749239 0.372363 -0.547710
vn 0.749240 0.372363 -0.547710
vn 0.749239 0.372363 -0.547710
s off
g pSphere10
usemtl initialShadingGroup
f 1/1/1 2/2/2 6/7/3 5/6/4
f 2/2/5 3/3/6 7/8/7 6/7/8
f 3/3/9 4/4/10 8/9/11 7/8/12
f 4/4/13 1/5/14 5/10/15 8/9/16
f 5/6/17 6/7/18 10/12/19 9/11/20
f 6/7/21 7/8/22 11/13/23 10/12/24
f 7/8/25 8/9/26 12/14/27 11/13/28
f 8/9/29 5/10/30 9/15/31 12/14/32
f 2/2/33 1/1/34 13/16/35
f 3/3/36 2/2/37 13/17/38
f 4/4/39 3/3/40 13/18/41
f 1/5/42 4/4/43 13/19/44
f 9/11/45 10/12/46 14/20/47
f 10/12/48 11/13/49 14/21/50
f 11/13/51 12/14/52 14/22/53
f 12/14/54 9/15/55 14/23/56
